<svg height="64" viewBox="0 0 64 64" width="64" xmlns="http://www.w3.org/2000/svg"><g fill="none" fill-rule="evenodd"><path d="m13 2h9l1 6h-11z" fill="#e43535"/><path d="m13 8h9l1.1393114 5.0501097c.2429488 1.0768947.9162796 2.6990129 1.5174667 3.644395l3.373869 5.3054953v18l-1.5802502 7.090839c-.4811437 2.15897-.1203339 5.5280804.8103116 7.5346493l.3473967.7490234c.9286665 2.0023019.3739564 4.8614437-1.2263628 6.3741457l-1.6573366 1.5665978c-.4000783.3781741-1.1718952.6847448-1.7229081.6847448h-11.0029954c-.5514576 0-1.3269133-.3127724-1.7284923-.6952286l-1.61861078-1.541534c-1.60239854-1.5260939-2.14253076-4.3821568-1.20195159-6.3887257l.35110474-.7490234c.93857901-2.0023019 1.3033152-5.368471.81100195-7.5346493l-1.61155432-7.090839v-18l3.4221379-5.3233256c.5952868-.9260017 1.2648053-2.5490758 1.4956957-3.6265647z" fill="#595959"/><path d="m7 22h21v18h-21z" fill="#ff5656"/><path d="m33.8125 37.1702955h24.375l-1.4401739 23.2643481c-.1020766 1.64893-1.5223157 2.9856519-3.1890889 2.9856519h-15.1164744c-1.6592085 0-3.0870808-1.33783-3.1890889-2.9856519z" fill="#595959"/><path d="m33 24.42h26l-.812 12.75h-24.375z" fill="#ececec"/><path d="m45.533 57.643 5.228-48.944 10.799-7.699" stroke="#80d25b" stroke-width="2"/></g></svg>